<svg width="33" height="33" viewBox="0 0 33 33" fill="none" xmlns="http://www.w3.org/2000/svg">
<circle cx="16.5" cy="16.5" r="16.5" fill="#393636"/>
<circle cx="16.5" cy="16.5" r="12.5" fill="#515151"/>
<g clip-path="url(#clip0)">
<path d="M25.2891 11.667L16.4949 20.462L7.70076 11.667C7.53669 11.5086 7.27521 11.5131 7.11672 11.6772C6.96215 11.8373 6.96215 12.091 7.11672 12.251L16.2033 21.3376C16.3646 21.4988 16.626 21.4988 16.7873 21.3376L25.8739 12.251C26.038 12.0925 26.0425 11.8311 25.8841 11.667C25.7256 11.5029 25.4641 11.4984 25.3 11.6569C25.2966 11.6602 25.2932 11.6636 25.2899 11.667L25.2891 11.667Z" fill="#FFC107"/>
<path d="M16.495 21.4591C16.3853 21.4593 16.2801 21.4159 16.2025 21.3384L7.11595 12.2519C6.95746 12.0878 6.96203 11.8263 7.12609 11.6678C7.28616 11.5133 7.5399 11.5133 7.69994 11.6678L16.4949 20.462L25.2891 11.667C25.4476 11.503 25.709 11.4984 25.8731 11.6569C26.0372 11.8154 26.0417 12.0768 25.8832 12.2409C25.8799 12.2444 25.8765 12.2477 25.8731 12.2511L16.7866 21.3376C16.7093 21.4152 16.6044 21.4588 16.495 21.4591Z" fill="white"/>
</g>
<defs>
<clipPath id="clip0">
<rect width="19" height="19" fill="white" transform="translate(7 7)"/>
</clipPath>
</defs>
</svg>
