<svg width="24" height="24" viewBox="0 0 24 24" fill="none" xmlns="http://www.w3.org/2000/svg">
<g clip-path="url(#clip0)">
<path d="M12.1825 14C4.97139 14 1 17.4114 1 23.6059C1 24.0897 1.39211 24.4818 1.87591 24.4818H22.489C22.9728 24.4818 23.365 24.0897 23.365 23.6059C23.365 17.4117 19.3936 14 12.1825 14ZM2.78369 22.73C3.12822 18.0984 6.28586 15.7519 12.1825 15.7519C18.0791 15.7519 21.2368 18.0984 21.5816 22.73H2.78369Z" fill="white"/>
<path d="M12 0C8.6876 0 6.18982 2.54803 6.18982 5.92673C6.18982 9.40439 8.79626 12.2333 12 12.2333C15.2038 12.2333 17.8102 9.40439 17.8102 5.92702C17.8102 2.54803 15.3124 0 12 0ZM12 10.4818C9.76207 10.4818 7.94163 8.43853 7.94163 5.92702C7.94163 3.50775 9.64849 1.75181 12 1.75181C14.3139 1.75181 16.0584 3.54656 16.0584 5.92702C16.0584 8.43853 14.238 10.4818 12 10.4818Z" fill="white"/>
</g>
<defs>
<clipPath id="clip0">
<rect width="24" height="24" fill="white"/>
</clipPath>
</defs>
</svg>
